<svg xmlns="http://www.w3.org/2000/svg" viewBox="0 0 280 60"><title>jbn-logo-280x60</title><path d="M84,19.99V38.4c0,5.44-2.472,7.661-7.7,7.661-5.445,0-6.77-3.473-6.77-7.486V37.47h4.729v.786c0,2.724.43,4.012,2.292,4.012s2.292-1.288,2.292-4.012V19.99Z" fill="#004680"/><path d="M92,19.99V37.826c0,2.546.61,4.442,3.009,4.442s3.009-1.9,3.009-4.442V19.99h5.156V37.826c0,6.518-3.974,8.238-8.165,8.238s-8.165-1.4-8.165-8.238V19.99Z" fill="#004680"/><path d="M106.019,45.563V19.99h5.158V41.336h7.71v4.227Z" fill="#004680"/><path d="M121.732,45.563V19.99h5.158V45.563Z" fill="#004680"/><path d="M134.893,19.99V37.826c0,2.546.606,4.442,3.008,4.442s3.007-1.9,3.007-4.442V19.99h5.157V37.826c0,6.518-3.974,8.238-8.164,8.238s-8.168-1.4-8.168-8.238V19.99Z" fill="#004680"/><path d="M153.216,37.577v.75c0,2.4.679,3.941,3.4,3.941a2.947,2.947,0,0,0,3.08-3.15c0-2.328-1.182-3.19-4.585-4.37-4.583-1.575-6.7-3.475-6.7-7.737,0-4.978,3.043-7.52,7.915-7.52,4.585,0,7.916,1.971,7.916,6.874v.721H159.3c0-2.4-.823-3.8-2.793-3.8a2.64,2.64,0,0,0-2.937,2.973c0,1.575.467,2.544,2.65,3.473l3.977,1.72c3.868,1.681,4.871,3.651,4.871,6.769,0,5.41-3.3,7.842-8.883,7.842-5.84,0-8.131-2.72-8.131-7.447v-1.04Z" fill="#004680"/><path d="M171.714,19.99h8.632c4.225,0,7.27,1.577,7.27,6.484,0,2.758-1.325,4.872-3.867,5.588v.07c2.829.4,4.654,2.544,4.654,5.948,0,4.009-1.968,7.483-7.985,7.483h-8.7Zm5.158,10.5h1.468c2.829,0,4.12-.967,4.12-3.368,0-2.432-1.182-3.331-3.724-3.331h-1.864Zm0,11.284h2.006c2.469,0,4.153-.9,4.153-3.87s-1.684-3.834-3.939-3.834h-2.22Z" fill="#004680"/><path d="M205.2,19.99v4.227h-9.132v6.018h7.891v4.224h-7.891v6.877h9.489v4.227H190.912V19.99Z" fill="#004680"/><path d="M208.014,19.99h9.527c4.225,0,6.8,2.223,6.8,6.593,0,3.4-1.362,5.692-4.263,6.3v.073c3.511.466,4.047,2.4,4.121,7.81a40.96,40.96,0,0,0,.341,4.8h-5.225s-.169-1.471-.2-2.685-.144-4.908-.144-4.908c-.069-2.006-.966-3.222-3.042-3.222h-2.757V45.563h-5.158Zm5.158,11.176h2.148c2.469,0,3.866-1.074,3.866-3.832,0-2.366-1.253-3.547-3.581-3.547h-2.433Z" fill="#004680"/><path d="M263.617,19.99h9.528c4.226,0,6.806,2.223,6.806,6.593,0,3.4-1.361,5.692-4.262,6.3v.073c3.508.466,4.045,2.4,4.118,7.81a40.7,40.7,0,0,0,.341,4.8h-5.222s-.171-1.471-.2-2.685-.144-4.908-.144-4.908c-.073-2.006-.969-3.222-3.048-3.222h-2.755V45.563h-5.159Zm5.159,11.176h2.148c2.472,0,3.867-1.074,3.867-3.832,0-2.366-1.253-3.547-3.58-3.547h-2.435Z" fill="#004680"/><path d="M238.334,27.584c0-1.9-.857-4.3-2.934-4.3-2.507,0-3.511,2.579-3.511,8.954,0,6.162.574,10.027,3.546,10.027,1.218,0,3.189-1.322,3.189-4.083v-2.61h-3.406v-3.8h8.349v13.79h-3.8V43.2h-.07a5.746,5.746,0,0,1-5.374,2.866c-6.337,0-7.591-4.728-7.591-13.573,0-8.6,2-13,8.594-13,5.661,0,7.951,2.9,7.951,8.093Z" fill="#004680"/><path d="M260.808,19.99v4.227h-9.134v6.018h7.894v4.224h-7.894v6.877h9.491v4.227H246.517V19.99Z" fill="#004680"/><path d="M54.976,0H4.727A4.874,4.874,0,0,0-.148,4.874V55.123A4.877,4.877,0,0,0,4.727,60H54.976a4.878,4.878,0,0,0,4.875-4.877V4.874A4.875,4.875,0,0,0,54.976,0ZM57.2,55.123a2.225,2.225,0,0,1-2.224,2.224H4.727a2.223,2.223,0,0,1-2.222-2.224V4.874A2.226,2.226,0,0,1,4.727,2.649H54.976A2.228,2.228,0,0,1,57.2,4.874Z" fill="#004680"/><path d="M31.823,26.748a4.268,4.268,0,0,0,2.594-1.137,3.372,3.372,0,0,0,.942-2.485,3.482,3.482,0,0,0-.814-2.4,3.669,3.669,0,0,0-2.416-1.116q-.955-.109-5.489-.11H22.953v7.355h4.208C29.664,26.857,31.218,26.818,31.823,26.748Z" fill="#004680"/><path d="M33.83,32.6a21.873,21.873,0,0,0-5.693-.456H22.953v8.5H28.9a29.177,29.177,0,0,0,4.4-.2,3.948,3.948,0,0,0,2.329-1.271,3.9,3.9,0,0,0,.9-2.7,4.142,4.142,0,0,0-.693-2.425A3.93,3.93,0,0,0,33.83,32.6Z" fill="#004680"/><path d="M51.539,6.265H8.163A2.236,2.236,0,0,0,5.928,8.5V51.876a2.238,2.238,0,0,0,2.235,2.236H51.539a2.235,2.235,0,0,0,2.234-2.236V8.5A2.234,2.234,0,0,0,51.539,6.265ZM42.16,41.007A8.512,8.512,0,0,1,39.4,44.282a9.08,9.08,0,0,1-4.3,1.509q-1.606.17-7.744.216H16.535V14.212h12.71a36.672,36.672,0,0,1,5.627.315A8.03,8.03,0,0,1,40.631,18.5a7.206,7.206,0,0,1,.974,3.718,7.521,7.521,0,0,1-4.467,6.9A8.378,8.378,0,0,1,41.605,32a7.649,7.649,0,0,1,1.563,4.792A9.475,9.475,0,0,1,42.16,41.007Z" fill="#004680"/></svg>